<?xml version="1.0" encoding="UTF-8" standalone="no"?>
<!-- Created with Inkscape (http://www.inkscape.org/) -->

<svg
   width="92.616158mm"
   height="116.61018mm"
   viewBox="-55 -53 55.378074 69.724847"
   version="1.1"
   id="svg1"
   xml:space="preserve"
   inkscape:version="1.3 (0e150ed6c4, 2023-07-21)"
   sodipodi:docname="hand-pointer.svg"
   xmlns:inkscape="http://www.inkscape.org/namespaces/inkscape"
   xmlns:sodipodi="http://sodipodi.sourceforge.net/DTD/sodipodi-0.dtd"
   xmlns="http://www.w3.org/2000/svg"
   xmlns:svg="http://www.w3.org/2000/svg"><sodipodi:namedview
     id="namedview1"
     pagecolor="#ffffff"
     bordercolor="#000000"
     borderopacity="0.25"
     inkscape:showpageshadow="2"
     inkscape:pageopacity="0.0"
     inkscape:pagecheckerboard="0"
     inkscape:deskcolor="#d1d1d1"
     inkscape:document-units="mm"
     inkscape:zoom="1.4142136"
     inkscape:cx="229.1026"
     inkscape:cy="98.641396"
     inkscape:current-layer="layer1" /><defs
     id="defs1" /><g
     inkscape:label="Layer 1"
     inkscape:groupmode="layer"
     id="layer1"
     transform="translate(-10.940498,-22.966412)"><path
       style="fill:#000000"
       d="m -17.865538,39.281447 c -4.615892,-0.98897 -8.608614,-3.22453 -11.689924,-6.54529 -1.629762,-1.75641 -5.380928,-7.482039 -12.585199,-19.20956 -1.628408,-2.65081 -2.197564,-4.7856597 -1.794058,-6.72934 0.570121,-2.74626 2.59512,-4.86585 5.208158,-5.45144 2.771739,-0.62115895 5.229166,0.48479 7.30728,3.28859 l 1.378789,1.86027 0.132292,-14.54176 c 0.129876,-14.27624 0.143909,-17.635355 1.391757,-19.515614 0.968284,-1.459011 3.005497,-2.515305 5.180859,-2.469454 1.296976,0.02734 3.127057,0.569134 4.410736,1.733279 1.175216,1.065783 1.97861,4.765069 1.98528,7.493079 0.03297,2.756967 -0.08307,2.73168 1.08564,2.03663 0.867928,-0.516169 3.33922,-0.40012 4.6721,0.1457 0.66018,0.27035 1.6108504,1.01127 2.2820904,1.7786 l 1.15052,1.31521 0.8929,-0.47797 c 1.29059,-0.69085 4.008701,-0.64796 5.390831,0.0851 1.71242041,0.90819 2.9585404,2.50677 3.4042204,4.36706 l 0.1712,0.7146 2.18683,-0.15433 c 2.0072801,-0.14165 2.3006101,-0.0967 3.57258,0.54789 0.8242601,0.41768 1.7003901,1.13656 2.1622802,1.77418 1.3762,1.89978 1.43643,2.78793 1.1467,16.9082703 -0.26214,12.7757007 -0.26641,12.8425907 -0.96784,15.1665407 -0.8418801,2.78926 -1.3916301,3.91736 -3.1608601,6.486179 -1.8804901,2.73036 -4.8065901,5.34113 -7.56962009,6.75386 -2.49970041,1.2781 -5.65449141,2.3728 -8.07169141,2.80083 -2.2139304,0.39204 -7.0873404,0.3074 -9.2738504,-0.16107 z m 10.8438004,-3.64054 c 2.1938,-0.59697 5.505951,-2.2283 7.44524141,-3.66699 C 3.4572738,29.723267 5.9601339,25.986378 7.0195239,22.125738 7.5082339,20.344727 7.9722111,2.7505138 7.9543405,-1.834389 7.9487185,-3.276762 8.1327227,-5.9059101 7.2673743,-6.9430468 6.8691016,-7.4203844 5.9021092,-7.7199351 5.066362,-7.7053513 4.0162442,-7.6870267 3.4810702,-7.4331268 2.9853158,-7.0258225 2.21323,-6.3914886 2.2052704,-3.757953 2.1063938,-0.70470295 1.9780774,3.2576298 2.0309938,4.256317 1.6945138,4.736657 c -0.49974,0.71348 -1.83432999,0.79226 -2.54385019,0.15015 -0.44709021,-0.40462 -0.48385021,-1.00828 -0.48385021,-7.946 0,-8.45311 -0.0971,-9.01957 -1.67573,-9.77235 -1.16829,-0.55711 -2.3201746,-0.374057 -3.2664267,0.437905 -0.2708186,0.232385 -0.4207258,0.448464 -0.63762,0.895659 -0.3148425,0.649145 -0.2410643,7.838666 -0.2410643,7.838666 -0.2688395,8.7418307 -0.15951,8.80761 -1.85208,8.80761 -1.7296804,0 -1.7178304,0.0673 -1.7379404,-9.86114 -0.0203,-10.02907 -0.443913,-10.240879 -1.680524,-10.750567 -0.770115,-0.317415 -1.284451,-0.348342 -2.323917,-0.174306 -0.79692,0.20269 -1.197949,0.3863 -1.559408,1.467999 -0.406644,1.216916 -0.470731,3.732088 -0.482997,8.8701273 l -0.02042,8.5550767 -0.62462,0.50541 c -0.79051,0.63964 -1.39992,0.6396 -2.19034,-1.4e-4 l -0.624621,-0.50555 -0.132291,-12.66965 c -0.148328,-14.20549 -0.05031,-16.488844 -1.58674,-17.404239 -1.120105,-0.66735 -2.438641,-0.625288 -3.407354,0.426651 -1.287417,1.398024 -0.967445,5.706768 -1.091323,22.399658 -0.128089,17.26036 -0.148606,17.83855 -0.645882,18.20203 -0.634433,0.46373 -1.49994,0.4826 -2.048518,0.0447 -0.22786,-0.1819 -1.557036,-2.12261 -2.953724,-4.3126797 -3.12691,-4.9031503 -3.496916,-5.2784703 -5.203734,-5.2784703 -1.061816,0 -1.425434,0.13529 -2.09957,0.78115 -1.018099,0.9754 -1.453655,2.45496 -1.09988,3.7362203 0.259033,0.9381397 7.774523,13.2047007 11.208841,18.2947407 1.00335,1.487079 2.47838,3.301589 3.277844,4.032259 2.269534,2.07422 5.763744,3.83809 8.954662,4.52028 1.67985,0.35913 8.2430404,0.1066 10.0568404,-0.38697 z"
       id="path1"
       sodipodi:nodetypes="sssssscsssscssscscscsssssssssssssssssscssssssssscsscsscsssssssssssssss" /></g></svg>
